<svg xmlns="http://www.w3.org/2000/svg" viewBox="0 0 100 100"><path d="M55.4 54.6v22.8H41.7v-3.7c-4.2 2.5-9 3.8-14 3.8-7.4 0-14.4-2.9-19.6-8.1C2.9 64.2 0 57.4 0 50c0-4.2.9-8.2 2.7-11.8l.6-1.4L14 47.4l-.1.6c-.1.7-.2 1.4-.2 2.2 0 3.7 1.5 7.1 4.1 9.8 2.7 2.6 6.1 4.1 9.9 4.1 2.9 0 5.7-.9 8-2.5l-5-6.9 24.7-.1zM15.7 42.7L5.9 33l.6-.8c5.2-6.2 13-9.7 21.2-9.7 5.7 0 11.1 1.7 15.7 4.9 5.8 3.9 9.9 9.8 11.4 16.6l.3 1.4H40.8l-.3-.6c-.7-1.7-1.8-3.2-3.1-4.5-2.7-2.6-6.1-4.1-9.9-4.1s-7.2 1.4-9.9 4.1c-.5.5-1 1-1.4 1.6l-.5.8zM68.6 36.3L81 62.2l-.2.5-7.2 14.9-26.4-55H62l6.6 13.7zM100 22.6L84.9 54.3l-1.4 2.9L76 41.7l.2-.5 8.9-18.6H100z"/></svg>